# xmcd
#
# Track frame offsets:
#	150
#	22098
#	76527
#	107659
#	146833
#	169350
#	196408
#	238891
#
# Disc length: 3634 seconds
#
# Revision: 1
# Processed by: cddbd v1.5.2PL0 Copyright (c) Steve Scherf et al.
# Submitted via: audiograbber 1.83.01
#
DISCID=6a0e3008
DTITLE=Renderizors - Submarine
DYEAR=2008
DGENRE=
TTITLE0=Under the wheels
TTITLE1=Twister
TTITLE2=Stranger at your party
TTITLE3=The places we walk (to put down our dead)
TTITLE4=Wierder
TTITLE5=The Golden Guitars
TTITLE6=Slow Motion
TTITLE7=Stranger at your party (band version)
EXTD=
EXTT0=
EXTT1=
EXTT2=
EXTT3=
EXTT4=
EXTT5=
EXTT6=
EXTT7=
PLAYORDER=
